<svg width="76" height="44" viewBox="0 0 76 44" fill="none" xmlns="http://www.w3.org/2000/svg">
<path d="M0 7C0 3.13401 3.13401 0 7 0H69C72.866 0 76 3.13401 76 7V37C76 40.866 72.866 44 69 44H0V7Z" fill="#F2F5FF"/>
<path d="M5.41477 7.27273L8.00568 14.6193H8.10795L10.6989 7.27273H11.8068L8.60227 16H7.51136L4.30682 7.27273H5.41477ZM13.0298 16V9.45455H14.0014V10.4432H14.0696C14.1889 10.1193 14.4048 9.85653 14.7173 9.65483C15.0298 9.45312 15.3821 9.35227 15.7741 9.35227C15.848 9.35227 15.9403 9.35369 16.0511 9.35653C16.1619 9.35937 16.2457 9.36364 16.3026 9.36932V10.392C16.2685 10.3835 16.1903 10.3707 16.0682 10.3537C15.9489 10.3338 15.8224 10.3239 15.6889 10.3239C15.3707 10.3239 15.0866 10.3906 14.8366 10.5241C14.5895 10.6548 14.3935 10.8366 14.2486 11.0696C14.1065 11.2997 14.0355 11.5625 14.0355 11.858V16H13.0298ZM20.5458 7.27273V16H19.489V8.38068H19.4379L17.3072 9.79545V8.72159L19.489 7.27273H20.5458Z" fill="black"/>
<rect x="4" y="17" width="57" height="3" rx="1" fill="#7A6759"/>
<rect x="4" y="37" width="15" height="3" rx="1" fill="#7A6759"/>
<path d="M54.1408 7.62784C54.5149 7.62784 54.8747 7.69058 55.2203 7.81605C55.5684 7.94152 55.8785 8.14157 56.1507 8.41619C56.4254 8.69081 56.642 9.0554 56.8006 9.50994C56.9616 9.96212 57.0433 10.5173 57.0456 11.1754C57.0456 11.7933 56.9758 12.3449 56.8361 12.8303C56.6988 13.3132 56.5011 13.724 56.2431 14.0625C55.985 14.401 55.6737 14.6591 55.3091 14.8366C54.9445 15.0118 54.5373 15.0994 54.0875 15.0994C53.6022 15.0994 53.1737 15.0059 52.802 14.8189C52.4303 14.6295 52.1309 14.3726 51.9036 14.0483C51.6787 13.7216 51.5426 13.3546 51.4952 12.9474H53.0115C53.0707 13.2126 53.195 13.4186 53.3844 13.5653C53.5738 13.7098 53.8082 13.782 54.0875 13.782C54.561 13.782 54.9209 13.576 55.1671 13.1641C55.4133 12.7498 55.5376 12.1828 55.54 11.4631H55.4902C55.3813 11.6761 55.2346 11.8596 55.0499 12.0135C54.8652 12.165 54.6534 12.2822 54.4142 12.3651C54.1775 12.4479 53.9254 12.4893 53.6578 12.4893C53.2293 12.4893 52.847 12.3887 52.5108 12.1875C52.1747 11.9863 51.9095 11.7093 51.7154 11.3565C51.5212 11.0038 51.4242 10.6013 51.4242 10.1491C51.4218 9.66146 51.5343 9.22704 51.7615 8.84588C51.9888 8.46473 52.306 8.16643 52.7132 7.95099C53.1228 7.73319 53.5987 7.62547 54.1408 7.62784ZM54.1515 8.83523C53.9123 8.83523 53.6993 8.89205 53.5123 9.00568C53.3276 9.11932 53.1808 9.27202 53.0719 9.46378C52.9654 9.65554 52.9133 9.86979 52.9157 10.1065C52.9157 10.3456 52.9677 10.5611 53.0719 10.7528C53.1784 10.9422 53.3229 11.0937 53.5051 11.2074C53.6898 11.3187 53.9005 11.3743 54.1373 11.3743C54.3148 11.3743 54.4793 11.3411 54.6309 11.2749C54.7824 11.2086 54.9138 11.1174 55.025 11.0014C55.1387 10.883 55.2275 10.7469 55.2914 10.593C55.3553 10.4392 55.3873 10.2758 55.3873 10.103C55.3849 9.87334 55.3304 9.66264 55.2239 9.47088C55.1174 9.27912 54.9706 9.12524 54.7836 9.00923C54.5965 8.89323 54.3858 8.83523 54.1515 8.83523ZM60.9625 15.1598C60.3517 15.1574 59.8262 15.0071 59.3858 14.7088C58.9479 14.4105 58.6105 13.9785 58.3738 13.4126C58.1394 12.8468 58.0234 12.1662 58.0257 11.3707C58.0257 10.5777 58.1429 9.90175 58.3773 9.34304C58.6141 8.78433 58.9514 8.35937 59.3894 8.06818C59.8297 7.77462 60.3541 7.62784 60.9625 7.62784C61.571 7.62784 62.0942 7.77462 62.5321 8.06818C62.9725 8.36174 63.311 8.78788 63.5478 9.34659C63.7845 9.90294 63.9017 10.5777 63.8993 11.3707C63.8993 12.1686 63.781 12.8504 63.5442 13.4162C63.3098 13.982 62.9737 14.4141 62.5357 14.7124C62.0977 15.0107 61.5733 15.1598 60.9625 15.1598ZM60.9625 13.8849C61.3792 13.8849 61.7118 13.6754 61.9604 13.2564C62.209 12.8374 62.3321 12.2088 62.3297 11.3707C62.3297 10.8191 62.2729 10.3598 62.1593 9.9929C62.048 9.62595 61.8894 9.35014 61.6834 9.16548C61.4798 8.98082 61.2395 8.88849 60.9625 8.88849C60.5482 8.88849 60.2168 9.09564 59.9682 9.50994C59.7196 9.92424 59.5942 10.5445 59.5918 11.3707C59.5918 11.9295 59.6474 12.3958 59.7587 12.7699C59.8723 13.1416 60.0321 13.4209 60.2381 13.608C60.4441 13.7926 60.6855 13.8849 60.9625 13.8849ZM68.9766 13.6364V13.2528C68.9766 12.9616 69.0381 12.6941 69.1612 12.4503C69.2867 12.2041 69.4678 12.0076 69.7045 11.8608C69.9437 11.7116 70.2348 11.6371 70.5781 11.6371C70.9261 11.6371 71.2185 11.7105 71.4553 11.8572C71.6944 12.004 71.8743 12.2005 71.995 12.4467C72.1181 12.6906 72.1797 12.9593 72.1797 13.2528V13.6364C72.1797 13.9276 72.1181 14.1963 71.995 14.4425C71.8719 14.6863 71.6908 14.8816 71.4517 15.0284C71.2126 15.1776 70.9214 15.2521 70.5781 15.2521C70.2301 15.2521 69.9377 15.1776 69.701 15.0284C69.4643 14.8816 69.2843 14.6863 69.1612 14.4425C69.0381 14.1963 68.9766 13.9276 68.9766 13.6364ZM70.0099 13.2528V13.6364C70.0099 13.8045 70.0502 13.9631 70.1307 14.1122C70.2135 14.2614 70.3627 14.3359 70.5781 14.3359C70.7936 14.3359 70.9403 14.2625 71.0185 14.1158C71.099 13.969 71.1392 13.8092 71.1392 13.6364V13.2528C71.1392 13.08 71.1013 12.919 71.0256 12.7699C70.9498 12.6207 70.8007 12.5462 70.5781 12.5462C70.3651 12.5462 70.2171 12.6207 70.1342 12.7699C70.0514 12.919 70.0099 13.08 70.0099 13.2528ZM65.2443 9.47443V9.09091C65.2443 8.79735 65.3071 8.52865 65.4325 8.2848C65.558 8.03859 65.7391 7.84209 65.9759 7.69531C66.215 7.54853 66.5038 7.47514 66.8423 7.47514C67.1927 7.47514 67.4863 7.54853 67.723 7.69531C67.9598 7.84209 68.1397 8.03859 68.2628 8.2848C68.3859 8.52865 68.4474 8.79735 68.4474 9.09091V9.47443C68.4474 9.76799 68.3847 10.0367 68.2592 10.2805C68.1361 10.5244 67.955 10.7197 67.7159 10.8665C67.4792 11.0109 67.188 11.0831 66.8423 11.0831C66.4967 11.0831 66.2043 11.0097 65.9652 10.8629C65.7285 10.7138 65.5485 10.5185 65.4254 10.277C65.3047 10.0331 65.2443 9.76562 65.2443 9.47443ZM66.2848 9.09091V9.47443C66.2848 9.64725 66.325 9.80705 66.4055 9.95384C66.4884 10.1006 66.634 10.174 66.8423 10.174C67.0601 10.174 67.2081 10.1006 67.2862 9.95384C67.3667 9.80705 67.407 9.64725 67.407 9.47443V9.09091C67.407 8.91809 67.3691 8.7571 67.2933 8.60795C67.2176 8.45881 67.0672 8.38423 66.8423 8.38423C66.6316 8.38423 66.486 8.45999 66.4055 8.61151C66.325 8.76302 66.2848 8.92282 66.2848 9.09091ZM65.7131 15L70.7131 7.72727H71.6435L66.6435 15H65.7131Z" fill="black"/>
<path d="M56.3825 28.7273V36H54.8448V30.1868H54.8022L53.1367 31.2308V29.8672L54.9371 28.7273H56.3825ZM60.9625 36.1598C60.3517 36.1574 59.8262 36.0071 59.3858 35.7088C58.9479 35.4105 58.6105 34.9785 58.3738 34.4126C58.1394 33.8468 58.0234 33.1662 58.0257 32.3707C58.0257 31.5777 58.1429 30.9018 58.3773 30.343C58.6141 29.7843 58.9514 29.3594 59.3894 29.0682C59.8297 28.7746 60.3541 28.6278 60.9625 28.6278C61.571 28.6278 62.0942 28.7746 62.5321 29.0682C62.9725 29.3617 63.311 29.7879 63.5478 30.3466C63.7845 30.9029 63.9017 31.5777 63.8993 32.3707C63.8993 33.1686 63.781 33.8504 63.5442 34.4162C63.3098 34.982 62.9737 35.4141 62.5357 35.7124C62.0977 36.0107 61.5733 36.1598 60.9625 36.1598ZM60.9625 34.8849C61.3792 34.8849 61.7118 34.6754 61.9604 34.2564C62.209 33.8374 62.3321 33.2088 62.3297 32.3707C62.3297 31.8191 62.2729 31.3598 62.1593 30.9929C62.048 30.6259 61.8894 30.3501 61.6834 30.1655C61.4798 29.9808 61.2395 29.8885 60.9625 29.8885C60.5482 29.8885 60.2168 30.0956 59.9682 30.5099C59.7196 30.9242 59.5942 31.5445 59.5918 32.3707C59.5918 32.9295 59.6474 33.3958 59.7587 33.7699C59.8723 34.1416 60.0321 34.4209 60.2381 34.608C60.4441 34.7926 60.6855 34.8849 60.9625 34.8849ZM68.9766 34.6364V34.2528C68.9766 33.9616 69.0381 33.6941 69.1612 33.4503C69.2867 33.2041 69.4678 33.0076 69.7045 32.8608C69.9437 32.7116 70.2348 32.6371 70.5781 32.6371C70.9261 32.6371 71.2185 32.7105 71.4553 32.8572C71.6944 33.004 71.8743 33.2005 71.995 33.4467C72.1181 33.6906 72.1797 33.9593 72.1797 34.2528V34.6364C72.1797 34.9276 72.1181 35.1963 71.995 35.4425C71.8719 35.6863 71.6908 35.8816 71.4517 36.0284C71.2126 36.1776 70.9214 36.2521 70.5781 36.2521C70.2301 36.2521 69.9377 36.1776 69.701 36.0284C69.4643 35.8816 69.2843 35.6863 69.1612 35.4425C69.0381 35.1963 68.9766 34.9276 68.9766 34.6364ZM70.0099 34.2528V34.6364C70.0099 34.8045 70.0502 34.9631 70.1307 35.1122C70.2135 35.2614 70.3627 35.3359 70.5781 35.3359C70.7936 35.3359 70.9403 35.2625 71.0185 35.1158C71.099 34.969 71.1392 34.8092 71.1392 34.6364V34.2528C71.1392 34.08 71.1013 33.919 71.0256 33.7699C70.9498 33.6207 70.8007 33.5462 70.5781 33.5462C70.3651 33.5462 70.2171 33.6207 70.1342 33.7699C70.0514 33.919 70.0099 34.08 70.0099 34.2528ZM65.2443 30.4744V30.0909C65.2443 29.7973 65.3071 29.5286 65.4325 29.2848C65.558 29.0386 65.7391 28.8421 65.9759 28.6953C66.215 28.5485 66.5038 28.4751 66.8423 28.4751C67.1927 28.4751 67.4863 28.5485 67.723 28.6953C67.9598 28.8421 68.1397 29.0386 68.2628 29.2848C68.3859 29.5286 68.4474 29.7973 68.4474 30.0909V30.4744C68.4474 30.768 68.3847 31.0367 68.2592 31.2805C68.1361 31.5244 67.955 31.7197 67.7159 31.8665C67.4792 32.0109 67.188 32.0831 66.8423 32.0831C66.4967 32.0831 66.2043 32.0097 65.9652 31.8629C65.7285 31.7138 65.5485 31.5185 65.4254 31.277C65.3047 31.0331 65.2443 30.7656 65.2443 30.4744ZM66.2848 30.0909V30.4744C66.2848 30.6473 66.325 30.8071 66.4055 30.9538C66.4884 31.1006 66.634 31.174 66.8423 31.174C67.0601 31.174 67.2081 31.1006 67.2862 30.9538C67.3667 30.8071 67.407 30.6473 67.407 30.4744V30.0909C67.407 29.9181 67.3691 29.7571 67.2933 29.608C67.2176 29.4588 67.0672 29.3842 66.8423 29.3842C66.6316 29.3842 66.486 29.46 66.4055 29.6115C66.325 29.763 66.2848 29.9228 66.2848 30.0909ZM65.7131 36L70.7131 28.7273H71.6435L66.6435 36H65.7131Z" fill="black"/>
<path d="M5.05682 36V27.2727H8.10795C8.71591 27.2727 9.21733 27.3778 9.61222 27.5881C10.0071 27.7955 10.3011 28.0753 10.4943 28.4276C10.6875 28.777 10.7841 29.1648 10.7841 29.5909C10.7841 29.9659 10.7173 30.2756 10.5838 30.5199C10.4531 30.7642 10.2798 30.9574 10.0639 31.0994C9.85085 31.2415 9.61932 31.3466 9.36932 31.4148V31.5C9.63636 31.517 9.90483 31.6108 10.1747 31.7812C10.4446 31.9517 10.6705 32.196 10.8523 32.5142C11.0341 32.8324 11.125 33.2216 11.125 33.6818C11.125 34.1193 11.0256 34.5128 10.8267 34.8622C10.6278 35.2116 10.3139 35.4886 9.88494 35.6932C9.45597 35.8977 8.89773 36 8.21023 36H5.05682ZM6.11364 35.0625H8.21023C8.90057 35.0625 9.39063 34.929 9.6804 34.6619C9.97301 34.392 10.1193 34.0653 10.1193 33.6818C10.1193 33.3864 10.044 33.1136 9.89347 32.8636C9.7429 32.6108 9.52841 32.4091 9.25 32.2585C8.97159 32.1051 8.64205 32.0284 8.26136 32.0284H6.11364V35.0625ZM6.11364 31.108H8.07386C8.39205 31.108 8.67898 31.0455 8.93466 30.9205C9.19318 30.7955 9.39773 30.6193 9.5483 30.392C9.7017 30.1648 9.77841 29.8977 9.77841 29.5909C9.77841 29.2074 9.64489 28.8821 9.37784 28.6151C9.1108 28.3452 8.6875 28.2102 8.10795 28.2102H6.11364V31.108ZM12.7081 36V35.233L15.5888 32.0795C15.9268 31.7102 16.2053 31.3892 16.424 31.1165C16.6428 30.8409 16.8047 30.5824 16.9098 30.3409C17.0178 30.0966 17.0717 29.8409 17.0717 29.5739C17.0717 29.267 16.9979 29.0014 16.8501 28.777C16.7053 28.5526 16.5064 28.3793 16.2536 28.2571C16.0007 28.1349 15.7166 28.0739 15.4013 28.0739C15.0661 28.0739 14.7734 28.1435 14.5234 28.2827C14.2763 28.419 14.0845 28.6108 13.9482 28.858C13.8146 29.1051 13.7479 29.3949 13.7479 29.7273H12.7422C12.7422 29.2159 12.8601 28.767 13.0959 28.3807C13.3317 27.9943 13.6527 27.6932 14.0589 27.4773C14.468 27.2614 14.9268 27.1534 15.4354 27.1534C15.9467 27.1534 16.3999 27.2614 16.7947 27.4773C17.1896 27.6932 17.4993 27.9844 17.7237 28.3509C17.9482 28.7173 18.0604 29.125 18.0604 29.5739C18.0604 29.8949 18.0021 30.2088 17.8857 30.5156C17.772 30.8196 17.5732 31.1591 17.2891 31.5341C17.0078 31.9062 16.6172 32.3608 16.1172 32.8977L14.157 34.9943V35.0625H18.2138V36H12.7081Z" fill="black"/>
</svg>
