<svg width="76" height="27" viewBox="0 0 76 27" fill="none" xmlns="http://www.w3.org/2000/svg">
<path d="M0 7C0 3.13401 3.13401 0 7 0H69C72.866 0 76 3.13401 76 7V20C76 23.866 72.866 27 69 27H0V7Z" fill="#F2F5FF"/>
<rect x="4" y="17" width="68" height="3" rx="1" fill="#0060A5"/>
<path d="M49.4977 7.72727V15H47.96V9.18679H47.9174L46.252 10.2308V8.86719L48.0524 7.72727H49.4977ZM54.0778 15.1598C53.467 15.1574 52.9414 15.0071 52.5011 14.7088C52.0631 14.4105 51.7257 13.9785 51.489 13.4126C51.2546 12.8468 51.1386 12.1662 51.141 11.3707C51.141 10.5777 51.2582 9.90175 51.4925 9.34304C51.7293 8.78433 52.0666 8.35937 52.5046 8.06818C52.945 7.77462 53.4693 7.62784 54.0778 7.62784C54.6862 7.62784 55.2094 7.77462 55.6474 8.06818C56.0877 8.36174 56.4263 8.78788 56.663 9.34659C56.8997 9.90294 57.0169 10.5777 57.0146 11.3707C57.0146 12.1686 56.8962 12.8504 56.6594 13.4162C56.4251 13.982 56.0889 14.4141 55.6509 14.7124C55.2129 15.0107 54.6886 15.1598 54.0778 15.1598ZM54.0778 13.8849C54.4944 13.8849 54.8271 13.6754 55.0756 13.2564C55.3242 12.8374 55.4473 12.2088 55.445 11.3707C55.445 10.8191 55.3881 10.3598 55.2745 9.9929C55.1632 9.62595 55.0046 9.35014 54.7987 9.16548C54.5951 8.98082 54.3548 8.88849 54.0778 8.88849C53.6635 8.88849 53.332 9.09564 53.0835 9.50994C52.8349 9.92424 52.7094 10.5445 52.707 11.3707C52.707 11.9295 52.7627 12.3958 52.8739 12.7699C52.9876 13.1416 53.1474 13.4209 53.3533 13.608C53.5593 13.7926 53.8008 13.8849 54.0778 13.8849ZM60.9625 15.1598C60.3517 15.1574 59.8262 15.0071 59.3858 14.7088C58.9479 14.4105 58.6105 13.9785 58.3738 13.4126C58.1394 12.8468 58.0234 12.1662 58.0257 11.3707C58.0257 10.5777 58.1429 9.90175 58.3773 9.34304C58.6141 8.78433 58.9514 8.35937 59.3894 8.06818C59.8297 7.77462 60.3541 7.62784 60.9625 7.62784C61.571 7.62784 62.0942 7.77462 62.5321 8.06818C62.9725 8.36174 63.311 8.78788 63.5478 9.34659C63.7845 9.90294 63.9017 10.5777 63.8993 11.3707C63.8993 12.1686 63.781 12.8504 63.5442 13.4162C63.3098 13.982 62.9737 14.4141 62.5357 14.7124C62.0977 15.0107 61.5733 15.1598 60.9625 15.1598ZM60.9625 13.8849C61.3792 13.8849 61.7118 13.6754 61.9604 13.2564C62.209 12.8374 62.3321 12.2088 62.3297 11.3707C62.3297 10.8191 62.2729 10.3598 62.1593 9.9929C62.048 9.62595 61.8894 9.35014 61.6834 9.16548C61.4798 8.98082 61.2395 8.88849 60.9625 8.88849C60.5482 8.88849 60.2168 9.09564 59.9682 9.50994C59.7196 9.92424 59.5942 10.5445 59.5918 11.3707C59.5918 11.9295 59.6474 12.3958 59.7587 12.7699C59.8723 13.1416 60.0321 13.4209 60.2381 13.608C60.4441 13.7926 60.6855 13.8849 60.9625 13.8849ZM68.9766 13.6364V13.2528C68.9766 12.9616 69.0381 12.6941 69.1612 12.4503C69.2867 12.2041 69.4678 12.0076 69.7045 11.8608C69.9437 11.7116 70.2348 11.6371 70.5781 11.6371C70.9261 11.6371 71.2185 11.7105 71.4553 11.8572C71.6944 12.004 71.8743 12.2005 71.995 12.4467C72.1181 12.6906 72.1797 12.9593 72.1797 13.2528V13.6364C72.1797 13.9276 72.1181 14.1963 71.995 14.4425C71.8719 14.6863 71.6908 14.8816 71.4517 15.0284C71.2126 15.1776 70.9214 15.2521 70.5781 15.2521C70.2301 15.2521 69.9377 15.1776 69.701 15.0284C69.4643 14.8816 69.2843 14.6863 69.1612 14.4425C69.0381 14.1963 68.9766 13.9276 68.9766 13.6364ZM70.0099 13.2528V13.6364C70.0099 13.8045 70.0502 13.9631 70.1307 14.1122C70.2135 14.2614 70.3627 14.3359 70.5781 14.3359C70.7936 14.3359 70.9403 14.2625 71.0185 14.1158C71.099 13.969 71.1392 13.8092 71.1392 13.6364V13.2528C71.1392 13.08 71.1013 12.919 71.0256 12.7699C70.9498 12.6207 70.8007 12.5462 70.5781 12.5462C70.3651 12.5462 70.2171 12.6207 70.1342 12.7699C70.0514 12.919 70.0099 13.08 70.0099 13.2528ZM65.2443 9.47443V9.09091C65.2443 8.79735 65.3071 8.52865 65.4325 8.2848C65.558 8.03859 65.7391 7.84209 65.9759 7.69531C66.215 7.54853 66.5038 7.47514 66.8423 7.47514C67.1927 7.47514 67.4863 7.54853 67.723 7.69531C67.9598 7.84209 68.1397 8.03859 68.2628 8.2848C68.3859 8.52865 68.4474 8.79735 68.4474 9.09091V9.47443C68.4474 9.76799 68.3847 10.0367 68.2592 10.2805C68.1361 10.5244 67.955 10.7197 67.7159 10.8665C67.4792 11.0109 67.188 11.0831 66.8423 11.0831C66.4967 11.0831 66.2043 11.0097 65.9652 10.8629C65.7285 10.7138 65.5485 10.5185 65.4254 10.277C65.3047 10.0331 65.2443 9.76562 65.2443 9.47443ZM66.2848 9.09091V9.47443C66.2848 9.64725 66.325 9.80705 66.4055 9.95384C66.4884 10.1006 66.634 10.174 66.8423 10.174C67.0601 10.174 67.2081 10.1006 67.2862 9.95384C67.3667 9.80705 67.407 9.64725 67.407 9.47443V9.09091C67.407 8.91809 67.3691 8.7571 67.2933 8.60795C67.2176 8.45881 67.0672 8.38423 66.8423 8.38423C66.6316 8.38423 66.486 8.45999 66.4055 8.61151C66.325 8.76302 66.2848 8.92282 66.2848 9.09091ZM65.7131 15L70.7131 7.72727H71.6435L66.6435 15H65.7131Z" fill="black"/>
</svg>
