<svg width="100" height="100" viewBox="0 0 100 100" fill="none" xmlns="http://www.w3.org/2000/svg">
<path d="M86.1307 51.2049C86.8342 51.2049 87.4372 50.6025 87.4372 49.8997C87.4372 49.1969 86.8342 48.5944 86.1307 48.5944C85.4271 48.5944 84.8241 49.1969 84.8241 49.8997C84.9246 50.6025 85.4271 51.2049 86.1307 51.2049Z" fill="#FB3636" fill-opacity="0.3"/>
<path d="M85.3266 58.735C86.0302 58.735 86.6332 58.1326 86.6332 57.4298C86.6332 56.727 86.0302 56.1246 85.3266 56.1246C84.6231 56.1246 84.0201 56.727 84.0201 57.4298C84.1206 58.1326 84.6231 58.735 85.3266 58.735Z" fill="#FB3636" fill-opacity="0.3"/>
<path d="M83.0151 65.9639C83.7366 65.9639 84.3216 65.3795 84.3216 64.6587C84.3216 63.9378 83.7366 63.3534 83.0151 63.3534C82.2935 63.3534 81.7085 63.9378 81.7085 64.6587C81.7085 65.3795 82.2935 65.9639 83.0151 65.9639Z" fill="#FB3636" fill-opacity="0.3"/>
<path d="M79.2965 72.49C80 72.49 80.603 71.8876 80.603 71.1848C80.603 70.4819 80 69.8795 79.2965 69.8795C78.5929 69.8795 77.9899 70.4819 77.9899 71.1848C77.9899 71.8876 78.5929 72.49 79.2965 72.49Z" fill="#FB3636" fill-opacity="0.3"/>
<path d="M74.1708 78.1124C74.8744 78.1124 75.4774 77.51 75.4774 76.8072C75.4774 76.1044 74.8744 75.502 74.1708 75.502C73.4673 75.502 72.8643 76.1044 72.8643 76.8072C72.9648 77.51 73.4673 78.1124 74.1708 78.1124Z" fill="#FB3636" fill-opacity="0.3"/>
<path d="M68.0402 82.5301C68.7437 82.5301 69.3467 81.9277 69.3467 81.2249C69.3467 80.5221 68.7437 79.9197 68.0402 79.9197C67.3367 79.9197 66.7337 80.5221 66.7337 81.2249C66.8342 81.9277 67.3367 82.5301 68.0402 82.5301Z" fill="#FB3636" fill-opacity="0.3"/>
<path d="M61.206 85.5422C61.9095 85.5422 62.5126 84.9398 62.5126 84.237C62.5126 83.5341 61.9095 82.9317 61.206 82.9317C60.5025 82.9317 59.8995 83.5341 59.8995 84.237C59.8995 85.0402 60.5025 85.5422 61.206 85.5422Z" fill="#FB3636" fill-opacity="0.3"/>
<path d="M53.7688 87.1486C54.4724 87.1486 55.0754 86.5462 55.0754 85.8434C55.0754 85.1405 54.4724 84.5381 53.7688 84.5381C53.0653 84.5381 52.4623 85.1405 52.4623 85.8434C52.4623 86.5462 53.0653 87.1486 53.7688 87.1486Z" fill="#FB3636" fill-opacity="0.3"/>
<path d="M46.2312 87.1486C46.9527 87.1486 47.5377 86.5642 47.5377 85.8434C47.5377 85.1225 46.9527 84.5381 46.2312 84.5381C45.5096 84.5381 44.9246 85.1225 44.9246 85.8434C44.9246 86.5642 45.5096 87.1486 46.2312 87.1486Z" fill="#FB3636" fill-opacity="0.3"/>
<path d="M38.794 85.6425C39.4975 85.6425 40.1005 85.0401 40.1005 84.3373C40.1005 83.6345 39.4975 83.0321 38.794 83.0321C38.0905 83.0321 37.4874 83.6345 37.4874 84.3373C37.4874 85.0401 38.0905 85.6425 38.794 85.6425Z" fill="#FB3636" fill-opacity="0.3"/>
<path d="M31.8593 82.5301C32.5628 82.5301 33.1658 81.9277 33.1658 81.2249C33.1658 80.5221 32.5628 79.9197 31.8593 79.9197C31.1558 79.9197 30.5528 80.5221 30.5528 81.2249C30.6533 81.9277 31.1558 82.5301 31.8593 82.5301Z" fill="#FB3636" fill-opacity="0.3"/>
<path d="M25.7286 78.1124C26.4322 78.1124 27.0352 77.51 27.0352 76.8072C27.0352 76.1044 26.4322 75.502 25.7286 75.502C25.0251 75.502 24.4221 76.1044 24.4221 76.8072C24.4221 77.51 25.0251 78.1124 25.7286 78.1124Z" fill="#FB3636" fill-opacity="0.3"/>
<path d="M20.7035 72.49C21.407 72.49 22.01 71.8876 22.01 71.1848C22.01 70.4819 21.407 69.8795 20.7035 69.8795C20 69.8795 19.397 70.4819 19.397 71.1848C19.397 71.8876 20 72.49 20.7035 72.49Z" fill="#FB3636" fill-opacity="0.3"/>
<path d="M16.8844 65.9639C17.5879 65.9639 18.191 65.3615 18.191 64.6587C18.191 63.9558 17.5879 63.3534 16.8844 63.3534C16.1809 63.3534 15.5779 63.9558 15.5779 64.6587C15.5779 65.3615 16.1809 65.9639 16.8844 65.9639Z" fill="#FB3636" fill-opacity="0.3"/>
<path d="M14.5729 58.735C15.2764 58.735 15.8794 58.1326 15.8794 57.4298C15.8794 56.727 15.2764 56.1246 14.5729 56.1246C13.8693 56.1246 13.2663 56.727 13.2663 57.4298C13.2663 58.1326 13.8693 58.735 14.5729 58.735Z" fill="#FB3636" fill-opacity="0.3"/>
<path d="M13.7688 51.2049C14.4724 51.2049 15.0754 50.6025 15.0754 49.8997C15.0754 49.1969 14.4724 48.5944 13.7688 48.5944C13.0653 48.5944 12.4623 49.1969 12.4623 49.8997C12.4623 50.7029 13.0653 51.2049 13.7688 51.2049Z" fill="#FB3636" fill-opacity="0.3"/>
<path d="M14.5729 43.7751C15.2764 43.7751 15.8794 43.1726 15.8794 42.4698C15.8794 41.767 15.2764 41.1646 14.5729 41.1646C13.8693 41.1646 13.2663 41.767 13.2663 42.4698C13.2663 43.1726 13.8693 43.7751 14.5729 43.7751Z" fill="#FB3636" fill-opacity="0.3"/>
<path d="M16.8844 36.5462C17.5879 36.5462 18.191 35.9438 18.191 35.241C18.191 34.5382 17.5879 33.9357 16.8844 33.9357C16.1809 33.9357 15.5779 34.5382 15.5779 35.241C15.5779 35.9438 16.1809 36.5462 16.8844 36.5462Z" fill="#FB3636" fill-opacity="0.3"/>
<path d="M20.7035 30.0201C21.407 30.0201 22.01 29.4177 22.01 28.7149C22.01 28.0121 21.407 27.4096 20.7035 27.4096C20 27.4096 19.397 28.0121 19.397 28.7149C19.397 29.4177 20 30.0201 20.7035 30.0201Z" fill="#FB3636" fill-opacity="0.3"/>
<path d="M25.7286 24.3976C26.4322 24.3976 27.0352 23.7952 27.0352 23.0924C27.0352 22.3896 26.5327 21.6868 25.7286 21.6868C24.9246 21.6868 24.4221 22.2892 24.4221 22.992C24.4221 23.6948 25.0251 24.3976 25.7286 24.3976Z" fill="#FB3636" fill-opacity="0.3"/>
<path d="M31.8593 19.9799C32.5628 19.9799 33.1658 19.3775 33.1658 18.6747C33.1658 17.9719 32.5628 17.3695 31.8593 17.3695C31.1558 17.3695 30.5528 17.9719 30.5528 18.6747C30.5528 19.3775 31.1558 19.9799 31.8593 19.9799Z" fill="#FB3636" fill-opacity="0.3"/>
<path d="M38.794 16.8676C39.4975 16.8676 40.1005 16.2652 40.1005 15.5624C40.1005 14.8596 39.4975 14.2572 38.794 14.2572C38.0905 14.2572 37.4874 14.8596 37.4874 15.5624C37.4874 16.2652 38.0905 16.8676 38.794 16.8676Z" fill="#FB3636" fill-opacity="0.3"/>
<path d="M46.2312 15.2611C46.9527 15.2611 47.5377 14.6767 47.5377 13.9559C47.5377 13.235 46.9527 12.6507 46.2312 12.6507C45.5096 12.6507 44.9246 13.235 44.9246 13.9559C44.9246 14.6767 45.5096 15.2611 46.2312 15.2611Z" fill="#FB3636" fill-opacity="0.3"/>
<path d="M53.7688 15.2611C54.4904 15.2611 55.0754 14.6767 55.0754 13.9559C55.0754 13.235 54.4904 12.6507 53.7688 12.6507C53.0473 12.6507 52.4623 13.235 52.4623 13.9559C52.4623 14.6767 53.0473 15.2611 53.7688 15.2611Z" fill="#FB3636" fill-opacity="0.3"/>
<path d="M61.206 16.8676C61.9095 16.8676 62.5126 16.2652 62.5126 15.5624C62.5126 14.8596 61.9095 14.2572 61.206 14.2572C60.5025 14.2572 59.8995 14.8596 59.8995 15.5624C59.799 16.2652 60.402 16.8676 61.206 16.8676Z" fill="#FB3636" fill-opacity="0.3"/>
<path d="M68.0402 19.9799C68.7437 19.9799 69.3467 19.3775 69.3467 18.6747C69.3467 17.9719 68.7437 17.3695 68.0402 17.3695C67.3367 17.3695 66.7337 17.9719 66.7337 18.6747C66.7337 19.3775 67.3367 19.9799 68.0402 19.9799Z" fill="#FB3636" fill-opacity="0.3"/>
<path d="M74.1708 24.3977C74.8744 24.3977 75.4774 23.7953 75.4774 23.0925C75.4774 22.3897 74.8744 21.7873 74.1708 21.7873C73.4673 21.7873 72.8643 22.3897 72.8643 23.0925C72.8643 23.7953 73.4673 24.3977 74.1708 24.3977Z" fill="#FB3636" fill-opacity="0.3"/>
<path d="M79.2965 30.0201C80 30.0201 80.603 29.4177 80.603 28.7149C80.603 28.0121 80 27.4096 79.2965 27.4096C78.5929 27.4096 77.9899 28.0121 77.9899 28.7149C77.9899 29.4177 78.4924 30.0201 79.2965 30.0201Z" fill="#FB3636" fill-opacity="0.3"/>
<path d="M83.0151 36.5462C83.7366 36.5462 84.3216 35.9618 84.3216 35.241C84.3216 34.5201 83.7366 33.9357 83.0151 33.9357C82.2935 33.9357 81.7085 34.5201 81.7085 35.241C81.7085 35.9618 82.2935 36.5462 83.0151 36.5462Z" fill="#FB3636" fill-opacity="0.3"/>
<path d="M85.3266 43.6748C86.0482 43.6748 86.6332 43.0904 86.6332 42.3695C86.6332 41.6487 86.0482 41.0643 85.3266 41.0643C84.6051 41.0643 84.0201 41.6487 84.0201 42.3695C84.0201 43.0904 84.6051 43.6748 85.3266 43.6748Z" fill="#FB3636" fill-opacity="0.3"/>
<path d="M92.1608 51.7069C93.1658 51.7069 93.9699 50.9037 93.9699 49.8997C93.9699 48.8957 93.1658 48.0924 92.1608 48.0924C91.1558 48.0924 90.3518 48.8957 90.3518 49.8997C90.3518 50.9037 91.1558 51.7069 92.1608 51.7069Z" fill="#FB3636" fill-opacity="0.3"/>
<path d="M91.5578 59.237C92.5569 59.237 93.3668 58.4279 93.3668 57.4298C93.3668 56.4317 92.5569 55.6226 91.5578 55.6226C90.5587 55.6226 89.7487 56.4317 89.7487 57.4298C89.7487 58.4279 90.5587 59.237 91.5578 59.237Z" fill="#FB3636" fill-opacity="0.3"/>
<path d="M89.5477 66.5664C90.5468 66.5664 91.3568 65.7572 91.3568 64.7591C91.3568 63.761 90.5468 62.9519 89.5477 62.9519C88.5486 62.9519 87.7387 63.761 87.7387 64.7591C87.7387 65.7572 88.5486 66.5664 89.5477 66.5664Z" fill="#FB3636" fill-opacity="0.3"/>
<path d="M86.2311 73.3936C87.2362 73.3936 88.0402 72.5904 88.0402 71.5864C88.0402 70.5824 87.2362 69.7792 86.2311 69.7792C85.2261 69.7792 84.4221 70.5824 84.4221 71.5864C84.4221 72.5904 85.2261 73.3936 86.2311 73.3936Z" fill="#FB3636" fill-opacity="0.3"/>
<path d="M81.809 79.5181C82.8141 79.5181 83.6181 78.7149 83.6181 77.7109C83.6181 76.7068 82.8141 75.9036 81.809 75.9036C80.804 75.9036 80 76.7068 80 77.7109C80 78.7149 80.804 79.5181 81.809 79.5181Z" fill="#FB3636" fill-opacity="0.3"/>
<path d="M76.2814 84.7389C77.2805 84.7389 78.0905 83.9298 78.0905 82.9317C78.0905 81.9336 77.2805 81.1245 76.2814 81.1245C75.2823 81.1245 74.4724 81.9336 74.4724 82.9317C74.4724 83.9298 75.2823 84.7389 76.2814 84.7389Z" fill="#FB3636" fill-opacity="0.3"/>
<path d="M69.9497 88.8555C70.9548 88.8555 71.7588 88.0522 71.7588 87.0482C71.7588 86.0442 70.9548 85.241 69.9497 85.241C68.9447 85.241 68.1407 86.0442 68.1407 87.0482C68.1407 88.0522 68.9447 88.8555 69.9497 88.8555Z" fill="#FB3636" fill-opacity="0.3"/>
<path d="M63.0151 91.8675C64.0201 91.8675 64.8241 91.0643 64.8241 90.0603C64.8241 89.0562 64.0201 88.253 63.0151 88.253C62.01 88.253 61.206 89.0562 61.206 90.0603C61.206 91.0643 62.01 91.8675 63.0151 91.8675Z" fill="#FB3636" fill-opacity="0.3"/>
<path d="M55.6784 93.5743C56.6834 93.5743 57.4874 92.7711 57.4874 91.7671C57.4874 90.763 56.6834 89.9598 55.6784 89.9598C54.6734 89.9598 53.8694 90.763 53.8694 91.7671C53.8694 92.6707 54.6734 93.5743 55.6784 93.5743Z" fill="#FB3636" fill-opacity="0.3"/>
<path d="M48.1407 93.8755C49.1457 93.8755 49.9497 93.0723 49.9497 92.0683C49.9497 91.0643 49.1457 90.2611 48.1407 90.2611C47.1357 90.2611 46.3317 91.0643 46.3317 92.0683C46.3317 93.0723 47.1357 93.8755 48.1407 93.8755Z" fill="#FB3636" fill-opacity="0.3"/>
<path d="M40.603 92.8715C41.608 92.8715 42.4121 92.0683 42.4121 91.0643C42.4121 90.0603 41.608 89.2571 40.603 89.2571C39.598 89.2571 38.794 90.0603 38.794 91.0643C38.794 92.0683 39.598 92.8715 40.603 92.8715Z" fill="#FB3636" fill-opacity="0.3"/>
<path d="M33.3668 90.5622C34.3719 90.5622 35.1759 89.759 35.1759 88.755C35.1759 87.751 34.3719 86.9478 33.3668 86.9478C32.3618 86.9478 31.5578 87.751 31.5578 88.755C31.5578 89.759 32.3618 90.5622 33.3668 90.5622Z" fill="#FB3636" fill-opacity="0.3"/>
<path d="M26.7337 86.9478C27.7387 86.9478 28.5427 86.1446 28.5427 85.1406C28.5427 84.1366 27.7387 83.3333 26.7337 83.3333C25.7286 83.3333 24.9246 84.1366 24.9246 85.1406C24.9246 86.1446 25.7286 86.9478 26.7337 86.9478Z" fill="#FB3636" fill-opacity="0.3"/>
<path d="M20.804 82.2289C21.809 82.2289 22.6131 81.4257 22.6131 80.4217C22.6131 79.4176 21.809 78.6144 20.804 78.6144C19.799 78.6144 18.995 79.4176 18.995 80.4217C18.995 81.4257 19.799 82.2289 20.804 82.2289Z" fill="#FB3636" fill-opacity="0.3"/>
<path d="M15.8794 76.6064C16.8844 76.6064 17.6884 75.8032 17.6884 74.7992C17.6884 73.7952 16.8844 72.992 15.8794 72.992C14.8744 72.992 14.0703 73.7952 14.0703 74.7992C13.9698 75.7028 14.7739 76.6064 15.8794 76.6064Z" fill="#FB3636" fill-opacity="0.3"/>
<path d="M11.9598 70.0804C12.9648 70.0804 13.7688 69.2772 13.7688 68.2732C13.7688 67.2692 12.9648 66.466 11.9598 66.466C10.9548 66.466 10.1508 67.2692 10.1508 68.2732C10.1508 69.2772 10.9548 70.0804 11.9598 70.0804Z" fill="#FB3636" fill-opacity="0.3"/>
<path d="M9.24623 62.9518C10.2453 62.9518 11.0553 62.1427 11.0553 61.1446C11.0553 60.1465 10.2453 59.3374 9.24623 59.3374C8.24712 59.3374 7.43719 60.1465 7.43719 61.1446C7.43719 62.1427 8.24712 62.9518 9.24623 62.9518Z" fill="#FB3636" fill-opacity="0.3"/>
<path d="M7.9397 55.5222C8.93881 55.5222 9.74874 54.7131 9.74874 53.715C9.74874 52.7169 8.93881 51.9077 7.9397 51.9077C6.94059 51.9077 6.13065 52.7169 6.13065 53.715C6.13065 54.7131 6.94059 55.5222 7.9397 55.5222Z" fill="#FB3636" fill-opacity="0.3"/>
<path d="M7.9397 47.9921C8.93881 47.9921 9.74874 47.183 9.74874 46.1849C9.74874 45.1867 8.93881 44.3776 7.9397 44.3776C6.94059 44.3776 6.13065 45.1867 6.13065 46.1849C6.13065 47.183 6.94059 47.9921 7.9397 47.9921Z" fill="#FB3636" fill-opacity="0.3"/>
<path d="M9.24623 40.5622C10.2453 40.5622 11.0553 39.7531 11.0553 38.755C11.0553 37.7569 10.2453 36.9478 9.24623 36.9478C8.24712 36.9478 7.43719 37.7569 7.43719 38.755C7.43719 39.7531 8.24712 40.5622 9.24623 40.5622Z" fill="#FB3636" fill-opacity="0.3"/>
<path d="M11.9598 33.4339C12.9589 33.4339 13.7688 32.6247 13.7688 31.6266C13.7688 30.6285 12.9589 29.8194 11.9598 29.8194C10.9607 29.8194 10.1508 30.6285 10.1508 31.6266C10.1508 32.6247 10.9607 33.4339 11.9598 33.4339Z" fill="#FB3636" fill-opacity="0.3"/>
<path d="M15.8794 27.0081C16.8844 27.0081 17.7889 26.2049 17.7889 25.1005C17.7889 24.0964 16.9849 23.1928 15.8794 23.1928C14.8744 23.1928 13.9698 23.996 13.9698 25.1005C13.9698 26.2049 14.7739 27.0081 15.8794 27.0081Z" fill="#FB3636" fill-opacity="0.3"/>
<path d="M20.804 21.2851C21.809 21.2851 22.7136 20.4819 22.7136 19.3775C22.7136 18.2731 21.809 17.5703 20.804 17.5703C19.799 17.5703 18.8945 18.3735 18.8945 19.4779C18.8945 20.5823 19.799 21.2851 20.804 21.2851Z" fill="#FB3636" fill-opacity="0.3"/>
<path d="M26.7337 16.6667C27.7883 16.6667 28.6432 15.8126 28.6432 14.7591C28.6432 13.7055 27.7883 12.8514 26.7337 12.8514C25.6791 12.8514 24.8241 13.7055 24.8241 14.7591C24.8241 15.8126 25.6791 16.6667 26.7337 16.6667Z" fill="#FB3636" fill-opacity="0.3"/>
<path d="M33.3668 13.0523C34.3719 13.0523 35.2764 12.2491 35.2764 11.1447C35.2764 10.1407 34.4724 9.23709 33.3668 9.23709C32.3618 9.23709 31.4573 10.0403 31.4573 11.1447C31.5578 12.1487 32.3618 13.0523 33.3668 13.0523Z" fill="#FB3636" fill-opacity="0.3"/>
<path d="M40.603 10.6426C41.6021 10.6426 42.4121 9.83344 42.4121 8.83533C42.4121 7.83723 41.6021 7.02811 40.603 7.02811C39.6039 7.02811 38.794 7.83723 38.794 8.83533C38.794 9.83344 39.6039 10.6426 40.603 10.6426Z" fill="#FB3636" fill-opacity="0.3"/>
<path d="M48.1407 9.63855C49.1398 9.63855 49.9497 8.82942 49.9497 7.83132C49.9497 6.83321 49.1398 6.02409 48.1407 6.02409C47.1416 6.02409 46.3317 6.83321 46.3317 7.83132C46.3317 8.82942 47.1416 9.63855 48.1407 9.63855Z" fill="#FB3636" fill-opacity="0.3"/>
<path d="M55.6784 9.93979C56.6775 9.93979 57.4874 9.13066 57.4874 8.13256C57.4874 7.13446 56.6775 6.32533 55.6784 6.32533C54.6793 6.32533 53.8694 7.13446 53.8694 8.13256C53.8694 9.13066 54.6793 9.93979 55.6784 9.93979Z" fill="#FB3636" fill-opacity="0.3"/>
<path d="M63.0151 11.6466C64.0142 11.6466 64.8241 10.8375 64.8241 9.83935C64.8241 8.84124 64.0142 8.03212 63.0151 8.03212C62.016 8.03212 61.206 8.84124 61.206 9.83935C61.206 10.8375 62.016 11.6466 63.0151 11.6466Z" fill="#FB3636" fill-opacity="0.3"/>
<path d="M69.9497 14.6586C70.9548 14.6586 71.7588 13.8554 71.7588 12.8514C71.7588 11.8474 70.9548 11.0442 69.9497 11.0442C68.9447 11.0442 68.1407 11.8474 68.1407 12.8514C68.1407 13.8554 68.9447 14.6586 69.9497 14.6586Z" fill="#FB3636" fill-opacity="0.3"/>
<path d="M76.2814 18.7752C77.2864 18.7752 78.0905 17.9719 78.0905 16.9679C78.0905 15.9639 77.2864 15.1607 76.2814 15.1607C75.2764 15.1607 74.4724 15.9639 74.4724 16.9679C74.4724 17.9719 75.2764 18.7752 76.2814 18.7752Z" fill="#FB3636" fill-opacity="0.3"/>
<path d="M81.809 23.996C82.8141 23.996 83.6181 23.1928 83.6181 22.1888C83.6181 21.1848 82.8141 20.3815 81.809 20.3815C80.804 20.3815 80 21.1848 80 22.1888C80 23.1928 80.804 23.996 81.809 23.996Z" fill="#FB3636" fill-opacity="0.3"/>
<path d="M86.2311 30.1206C87.2303 30.1206 88.0402 29.3114 88.0402 28.3133C88.0402 27.3152 87.2303 26.5061 86.2311 26.5061C85.232 26.5061 84.4221 27.3152 84.4221 28.3133C84.4221 29.3114 85.232 30.1206 86.2311 30.1206Z" fill="#FB3636" fill-opacity="0.3"/>
<path d="M89.5477 36.9479C90.5527 36.9479 91.3568 36.1447 91.3568 35.1407C91.3568 34.1367 90.5527 33.3335 89.5477 33.3335C88.5427 33.3335 87.7387 34.1367 87.7387 35.1407C87.6382 36.1447 88.5427 36.9479 89.5477 36.9479Z" fill="#FB3636" fill-opacity="0.3"/>
<path d="M91.5578 44.1768C92.5569 44.1768 93.3668 43.3677 93.3668 42.3695C93.3668 41.3714 92.5569 40.5623 91.5578 40.5623C90.5587 40.5623 89.7487 41.3714 89.7487 42.3695C89.7487 43.3677 90.5587 44.1768 91.5578 44.1768Z" fill="#FB3636" fill-opacity="0.3"/>
<path d="M98.191 51.8072C99.196 51.8072 100 51.004 100 50C100 48.9959 99.196 48.1927 98.191 48.1927C97.1859 48.1927 96.3819 48.9959 96.3819 50C96.3819 51.004 97.1859 51.8072 98.191 51.8072Z" fill="#FB3636" fill-opacity="0.3"/>
<path d="M97.5879 59.3373C98.593 59.3373 99.397 58.5341 99.397 57.5301C99.397 56.526 98.593 55.7228 97.5879 55.7228C96.5829 55.7228 95.7789 56.526 95.7789 57.5301C95.7789 58.5341 96.5829 59.3373 97.5879 59.3373Z" fill="#FB3636" fill-opacity="0.3"/>
<path d="M95.8794 66.6666C96.8844 66.6666 97.6884 65.8634 97.6884 64.8594C97.6884 63.8554 96.8844 63.0522 95.8794 63.0522C94.8744 63.0522 94.0703 63.8554 94.0703 64.8594C94.0703 65.8634 94.8744 66.6666 95.8794 66.6666Z" fill="#FB3636" fill-opacity="0.3"/>
<path d="M92.9648 73.6948C93.9699 73.6948 94.7739 72.8915 94.7739 71.8875C94.7739 70.8835 93.9699 70.0803 92.9648 70.0803C91.9598 70.0803 91.1558 70.8835 91.1558 71.8875C91.1558 72.7911 91.9598 73.6948 92.9648 73.6948Z" fill="#FB3636" fill-opacity="0.3"/>
<path d="M89.0452 80.0201C90.0443 80.0201 90.8543 79.211 90.8543 78.2129C90.8543 77.2148 90.0443 76.4056 89.0452 76.4056C88.0461 76.4056 87.2362 77.2148 87.2362 78.2129C87.2362 79.211 88.0461 80.0201 89.0452 80.0201Z" fill="#FB3636" fill-opacity="0.3"/>
<path d="M84.1206 85.8434C85.1197 85.8434 85.9296 85.0343 85.9296 84.0362C85.9296 83.0381 85.1197 82.229 84.1206 82.229C83.1215 82.229 82.3116 83.0381 82.3116 84.0362C82.3116 85.0343 83.1215 85.8434 84.1206 85.8434Z" fill="#FB3636" fill-opacity="0.3"/>
<path d="M78.2915 90.763C79.2965 90.763 80.1005 89.9598 80.1005 88.9558C80.1005 87.9518 79.2965 87.1486 78.2915 87.1486C77.2864 87.1486 76.4824 87.9518 76.4824 88.9558C76.4824 89.9598 77.2864 90.763 78.2915 90.763Z" fill="#FB3636" fill-opacity="0.3"/>
<path d="M71.8593 94.6787C72.8584 94.6787 73.6683 93.8696 73.6683 92.8715C73.6683 91.8734 72.8584 91.0642 71.8593 91.0642C70.8602 91.0642 70.0502 91.8734 70.0502 92.8715C70.0502 93.8696 70.8602 94.6787 71.8593 94.6787Z" fill="#FB3636" fill-opacity="0.3"/>
<path d="M64.9246 97.5903C65.9296 97.5903 66.7337 96.7871 66.7337 95.7831C66.7337 94.7791 65.9296 93.9759 64.9246 93.9759C63.9196 93.9759 63.1156 94.7791 63.1156 95.7831C63.0151 96.7871 63.9196 97.5903 64.9246 97.5903Z" fill="#FB3636" fill-opacity="0.3"/>
<path d="M57.4874 99.3976C58.4925 99.3976 59.2965 98.5944 59.2965 97.5904C59.2965 96.5864 58.4925 95.7832 57.4874 95.7832C56.4824 95.7832 55.6784 96.5864 55.6784 97.5904C55.6784 98.5944 56.4824 99.3976 57.4874 99.3976Z" fill="#FB3636" fill-opacity="0.3"/>
<path d="M49.9497 100C50.9548 100 51.7588 99.1968 51.7588 98.1928C51.7588 97.1888 50.9548 96.3856 49.9497 96.3856C48.9447 96.3856 48.1407 97.1888 48.1407 98.1928C48.1407 99.0964 48.9447 100 49.9497 100Z" fill="#FB3636" fill-opacity="0.3"/>
<path d="M42.4121 99.2971C43.4112 99.2971 44.2211 98.488 44.2211 97.4899C44.2211 96.4918 43.4112 95.6827 42.4121 95.6827C41.4129 95.6827 40.603 96.4918 40.603 97.4899C40.603 98.488 41.4129 99.2971 42.4121 99.2971Z" fill="#FB3636" fill-opacity="0.3"/>
<path d="M35.0754 97.5903C36.0804 97.5903 36.8844 96.7871 36.8844 95.7831C36.8844 94.7791 36.0804 93.9759 35.0754 93.9759C34.0704 93.9759 33.2663 94.7791 33.2663 95.7831C33.2663 96.7871 34.0704 97.5903 35.0754 97.5903Z" fill="#FB3636" fill-opacity="0.3"/>
<path d="M28.0402 94.6787C29.0393 94.6787 29.8492 93.8696 29.8492 92.8715C29.8492 91.8734 29.0393 91.0642 28.0402 91.0642C27.0411 91.0642 26.2312 91.8734 26.2312 92.8715C26.2312 93.8696 27.0411 94.6787 28.0402 94.6787Z" fill="#FB3636" fill-opacity="0.3"/>
<path d="M21.608 90.6626C22.6131 90.6626 23.4171 89.8594 23.4171 88.8554C23.4171 87.8514 22.6131 87.0482 21.608 87.0482C20.603 87.0482 19.799 87.9518 19.799 88.9558C19.799 89.9598 20.603 90.6626 21.608 90.6626Z" fill="#FB3636" fill-opacity="0.3"/>
<path d="M15.8794 85.8434C16.8844 85.8434 17.6884 85.0402 17.6884 84.0362C17.6884 83.0322 16.8844 82.229 15.8794 82.229C14.8744 82.229 14.0704 83.0322 14.0704 84.0362C14.0704 85.0402 14.8744 85.8434 15.8794 85.8434Z" fill="#FB3636" fill-opacity="0.3"/>
<path d="M10.9548 80.0201C11.9598 80.0201 12.7638 79.2169 12.7638 78.2129C12.7638 77.2088 11.9598 76.4056 10.9548 76.4056C9.94975 76.4056 9.14573 77.2088 9.14573 78.2129C9.14573 79.2169 9.94975 80.0201 10.9548 80.0201Z" fill="#FB3636" fill-opacity="0.3"/>
<path d="M7.03518 73.5944C8.0402 73.5944 8.74372 72.7912 8.74372 71.8876C8.74372 70.8836 7.9397 70.1808 7.03518 70.1808C6.03015 70.1808 5.32664 70.984 5.32664 71.8876C5.22613 72.7912 6.03015 73.5944 7.03518 73.5944Z" fill="#FB3636" fill-opacity="0.3"/>
<path d="M4.1206 66.5663C5.12563 66.5663 5.82915 65.7631 5.82915 64.8595C5.82915 63.9559 5.02513 63.1527 4.1206 63.1527C3.11558 63.1527 2.41206 63.9559 2.41206 64.8595C2.41206 65.7631 3.11558 66.5663 4.1206 66.5663Z" fill="#FB3636" fill-opacity="0.3"/>
<path d="M2.31156 59.237C3.31658 59.237 4.0201 58.4338 4.0201 57.5301C4.0201 56.5261 3.21608 55.8233 2.31156 55.8233C1.30653 55.8233 0.603017 56.6265 0.603017 57.5301C0.603017 58.4338 1.40704 59.237 2.31156 59.237Z" fill="#FB3636" fill-opacity="0.3"/>
<path d="M1.70854 51.6064C2.65214 51.6064 3.41708 50.8422 3.41708 49.8996C3.41708 48.9569 2.65214 48.1927 1.70854 48.1927C0.76494 48.1927 0 48.9569 0 49.8996C0 50.8422 0.76494 51.6064 1.70854 51.6064Z" fill="#FB3636" fill-opacity="0.3"/>
<path d="M2.31156 44.0763C3.25516 44.0763 4.0201 43.3121 4.0201 42.3694C4.0201 41.4268 3.25516 40.6626 2.31156 40.6626C1.36796 40.6626 0.603017 41.4268 0.603017 42.3694C0.603017 43.3121 1.36796 44.0763 2.31156 44.0763Z" fill="#FB3636" fill-opacity="0.3"/>
<path d="M4.1206 36.7471C5.02513 36.7471 5.82915 35.9439 5.82915 35.0403C5.82915 34.1367 5.02513 33.3335 4.1206 33.3335C3.21608 33.3335 2.41206 34.1367 2.41206 35.0403C2.41206 35.9439 3.11558 36.7471 4.1206 36.7471Z" fill="#FB3636" fill-opacity="0.3"/>
<path d="M7.03517 29.719C7.9397 29.719 8.74372 28.9158 8.74372 28.0122C8.74372 27.1086 7.9397 26.3054 7.03517 26.3054C6.13065 26.3054 5.32663 27.1086 5.32663 28.0122C5.32663 29.0162 6.03015 29.719 7.03517 29.719Z" fill="#FB3636" fill-opacity="0.3"/>
<path d="M10.9548 23.2932C11.8593 23.2932 12.6633 22.49 12.6633 21.5864C12.6633 20.6827 11.8593 19.8795 10.9548 19.8795C10.0503 19.8795 9.24623 20.6827 9.24623 21.5864C9.24623 22.49 10.0503 23.2932 10.9548 23.2932Z" fill="#FB3636" fill-opacity="0.3"/>
<path d="M15.8794 17.5703C16.7839 17.5703 17.5879 16.7671 17.5879 15.8635C17.5879 14.9599 16.7839 14.1567 15.8794 14.1567C14.9749 14.1567 14.1709 14.9599 14.1709 15.8635C14.1709 16.7671 14.9749 17.5703 15.8794 17.5703Z" fill="#FB3636" fill-opacity="0.3"/>
<path d="M21.608 12.6507C22.5126 12.6507 23.3166 11.8475 23.3166 10.9439C23.3166 10.0403 22.5126 9.23709 21.608 9.23709C20.7035 9.23709 19.8995 10.0403 19.8995 10.9439C19.8995 11.8475 20.7035 12.6507 21.608 12.6507Z" fill="#FB3636" fill-opacity="0.3"/>
<path d="M28.0402 8.73497C28.9447 8.73497 29.7487 7.93176 29.7487 7.02814C29.7487 6.12453 28.9447 5.32132 28.0402 5.32132C27.1357 5.32132 26.3317 6.12453 26.3317 7.02814C26.3317 7.93176 27.1357 8.73497 28.0402 8.73497Z" fill="#FB3636" fill-opacity="0.3"/>
<path d="M35.0754 5.8234C35.9799 5.8234 36.7839 5.02019 36.7839 4.11658C36.7839 3.21296 35.9799 2.40975 35.0754 2.40975C34.1709 2.40975 33.3668 3.21296 33.3668 4.11658C33.3668 5.02019 34.1709 5.8234 35.0754 5.8234Z" fill="#FB3636" fill-opacity="0.3"/>
<path d="M42.4121 4.01614C43.3166 4.01614 44.1206 3.21292 44.1206 2.30931C44.1206 1.4057 43.3166 0.602485 42.4121 0.602485C41.5075 0.602485 40.7035 1.4057 40.7035 2.30931C40.7035 3.31333 41.5075 4.01614 42.4121 4.01614Z" fill="#FB3636" fill-opacity="0.3"/>
<path d="M49.9497 3.41365C50.8933 3.41365 51.6583 2.64948 51.6583 1.70683C51.6583 0.764172 50.8933 0 49.9497 0C49.0061 0 48.2412 0.764172 48.2412 1.70683C48.2412 2.64948 49.0061 3.41365 49.9497 3.41365Z" fill="#FB3636" fill-opacity="0.3"/>
<path d="M57.4874 4.11661C58.4925 4.11661 59.196 3.3134 59.196 2.40979C59.196 1.40577 58.392 0.702963 57.4874 0.702963C56.4824 0.702963 55.7789 1.50618 55.7789 2.40979C55.7789 3.3134 56.5829 4.11661 57.4874 4.11661Z" fill="#FB3636" fill-opacity="0.3"/>
<path d="M64.9246 5.8234C65.9296 5.8234 66.6332 5.02019 66.6332 4.11658C66.6332 3.11256 65.8291 2.40975 64.9246 2.40975C64.0201 2.40975 63.2161 3.21296 63.2161 4.11658C63.1156 5.02019 63.9196 5.8234 64.9246 5.8234Z" fill="#FB3636" fill-opacity="0.3"/>
<path d="M71.8593 8.73497C72.8643 8.73497 73.5678 7.93176 73.5678 7.02814C73.5678 6.02413 72.7638 5.32132 71.8593 5.32132C70.9548 5.32132 70.1507 6.12453 70.1507 7.02814C70.1507 7.93176 70.9548 8.73497 71.8593 8.73497Z" fill="#FB3636" fill-opacity="0.3"/>
<path d="M78.2915 12.7511C79.2965 12.7511 80.1005 11.9479 80.1005 10.9438C80.1005 9.93983 79.2965 9.13661 78.2915 9.13661C77.2864 9.13661 76.4824 9.93983 76.4824 10.9438C76.4824 11.9479 77.3869 12.7511 78.2915 12.7511Z" fill="#FB3636" fill-opacity="0.3"/>
<path d="M84.1206 17.6707C85.1256 17.6707 85.9296 16.8675 85.9296 15.8634C85.9296 14.8594 85.1256 14.0562 84.1206 14.0562C83.1156 14.0562 82.3116 14.8594 82.3116 15.8634C82.3116 16.8675 83.1156 17.6707 84.1206 17.6707Z" fill="#FB3636" fill-opacity="0.3"/>
<path d="M89.0452 23.3937C90.0502 23.3937 90.8543 22.5905 90.8543 21.5865C90.8543 20.5825 90.0502 19.7793 89.0452 19.7793C88.0402 19.7793 87.2362 20.5825 87.2362 21.5865C87.2362 22.5905 88.0402 23.3937 89.0452 23.3937Z" fill="#FB3636" fill-opacity="0.3"/>
<path d="M92.9648 29.8193C93.9699 29.8193 94.7739 29.0161 94.7739 28.0121C94.7739 27.0081 93.9699 26.2049 92.9648 26.2049C91.9598 26.2049 91.1558 27.0081 91.1558 28.0121C91.1558 29.0161 91.9598 29.8193 92.9648 29.8193Z" fill="#FB3636" fill-opacity="0.3"/>
<path d="M95.8794 36.8474C96.8844 36.8474 97.6884 36.0442 97.6884 35.0402C97.6884 34.0362 96.8844 33.233 95.8794 33.233C94.8744 33.233 94.0703 34.0362 94.0703 35.0402C94.0703 36.0442 94.8744 36.8474 95.8794 36.8474Z" fill="#FB3636" fill-opacity="0.3"/>
<path d="M97.5879 44.1768C98.593 44.1768 99.397 43.3736 99.397 42.3695C99.397 41.3655 98.593 40.5623 97.5879 40.5623C96.5829 40.5623 95.7789 41.3655 95.7789 42.3695C95.7789 43.3736 96.5829 44.1768 97.5879 44.1768Z" fill="#FB3636" fill-opacity="0.3"/>
<g clip-path="url(#clip0_4297_19291)">
<path d="M50.9999 22.5C45.7258 22.5 40.57 24.064 36.1847 26.9941C31.7994 29.9243 28.3815 34.0891 26.3631 38.9618C24.3448 43.8345 23.8167 49.1962 24.8457 54.3691C25.8746 59.5419 28.4144 64.2934 32.1438 68.0228C35.8732 71.7522 40.6247 74.292 45.7975 75.3209C50.9704 76.3499 56.3321 75.8218 61.2048 73.8035C66.0775 71.7851 70.2423 68.3672 73.1725 63.9819C76.1026 59.5966 77.6666 54.4408 77.6666 49.1667C77.6666 42.0942 74.8571 35.3115 69.8561 30.3105C64.8551 25.3095 58.0724 22.5 50.9999 22.5ZM48.6666 33.6667C48.6666 33.0478 48.9124 32.4543 49.35 32.0168C49.7876 31.5792 50.3811 31.3333 50.9999 31.3333C51.6188 31.3333 52.2123 31.5792 52.6498 32.0168C53.0874 32.4543 53.3333 33.0478 53.3333 33.6667V53.6667C53.3333 54.2855 53.0874 54.879 52.6498 55.3166C52.2123 55.7542 51.6188 56 50.9999 56C50.3811 56 49.7876 55.7542 49.35 55.3166C48.9124 54.879 48.6666 54.2855 48.6666 53.6667V33.6667ZM50.9999 66.6667C50.4066 66.6667 49.8266 66.4907 49.3332 66.1611C48.8399 65.8314 48.4554 65.3629 48.2283 64.8147C48.0012 64.2665 47.9418 63.6633 48.0576 63.0814C48.1733 62.4995 48.4591 61.9649 48.8786 61.5453C49.2982 61.1258 49.8327 60.8401 50.4147 60.7243C50.9966 60.6086 51.5998 60.668 52.148 60.895C52.6962 61.1221 53.1647 61.5066 53.4943 62C53.824 62.4933 53.9999 63.0733 53.9999 63.6667C53.9999 64.4623 53.6839 65.2254 53.1213 65.788C52.5586 66.3506 51.7956 66.6667 50.9999 66.6667Z" fill="#FB3636"/>
</g>
<defs>
<clipPath id="clip0_4297_19291">
<rect width="60" height="60" fill="white" transform="translate(21 19)"/>
</clipPath>
</defs>
</svg>
