<svg width="24" height="24" viewBox="0 0 24 24" fill="none" xmlns="http://www.w3.org/2000/svg">
<path fill-rule="evenodd" clip-rule="evenodd" d="M5 12C5 8.13867 8.13867 5 12 5C15.5059 5 18.416 7.58739 18.9221 10.9539C19.6921 12.0108 20.3249 12.9786 20.8086 13.8527C20.934 13.2547 21 12.6349 21 12C21 7.0341 16.9659 3 12 3C7.0341 3 3 7.0341 3 12C3 16.9659 7.0341 21 12 21C12.0835 21 12.1667 20.9989 12.2496 20.9966C11.9131 20.5881 11.6358 20.1309 11.4284 19.6381C11.3346 19.4151 11.2558 19.1864 11.1924 18.9538C7.71039 18.5524 5 15.5882 5 12Z" fill="#203685"/>
<path d="M16.5 11C18.8335 14.045 20 16.2115 20 17.5C20 17.9596 19.9095 18.4148 19.7336 18.8394C19.5577 19.264 19.2999 19.6499 18.9749 19.9749C18.6499 20.2999 18.264 20.5577 17.8394 20.7336C17.4148 20.9095 16.9596 21 16.5 21C16.0404 21 15.5852 20.9095 15.1606 20.7336C14.736 20.5577 14.3501 20.2999 14.0251 19.9749C13.7001 19.6499 13.4423 19.264 13.2664 18.8394C13.0905 18.4148 13 17.9596 13 17.5C13 16.2115 14.1665 14.045 16.5 11Z" fill="#203685"/>
<path d="M8 14L12 12" stroke="#203685" stroke-width="2" stroke-linecap="round"/>
<circle cx="12" cy="12" r="2" fill="#203685"/>
</svg>
