<svg width="24" height="24" viewBox="0 0 24 24" fill="none" xmlns="http://www.w3.org/2000/svg">
<path fill-rule="evenodd" clip-rule="evenodd" d="M13 4.1936C17.0003 9.05087 19 12.5528 19 14.7C19 15.5274 18.8189 16.3466 18.4672 17.1109C18.1154 17.8753 17.5998 18.5698 16.9497 19.1548C16.2997 19.7398 15.5281 20.2039 14.6788 20.5205C13.8295 20.8371 12.9193 21 12 21C11.0807 21 10.1705 20.8371 9.32122 20.5205C8.47194 20.2039 7.70026 19.7398 7.05025 19.1548C6.40024 18.5698 5.88463 17.8753 5.53284 17.1109C5.18106 16.3466 5 15.5274 5 14.7C5 12.5528 6.99974 9.05087 11 4.1936L11 14.5857L9.70711 13.2928C9.31658 12.9023 8.68342 12.9023 8.29289 13.2928C7.90237 13.6833 7.90237 14.3165 8.29289 14.707L11.2929 17.707C11.6834 18.0976 12.3166 18.0976 12.7071 17.707L15.7071 14.707C16.0976 14.3165 16.0976 13.6833 15.7071 13.2928C15.3166 12.9023 14.6834 12.9023 14.2929 13.2928L13 14.5857V4.1936Z" fill="#203685"/>
</svg>
