<svg width="17" height="16" viewBox="0 0 17 16" fill="none" xmlns="http://www.w3.org/2000/svg">
<rect x="1.15918" y="0.5" width="15" height="15" rx="1.5" fill="white"/>
<rect x="1.15918" y="0.5" width="15" height="15" rx="1.5" stroke="#ECEDEF"/>
<path d="M8.15918 3.92859C8.15918 3.65245 8.38304 3.42859 8.65918 3.42859C8.93532 3.42859 9.15918 3.65245 9.15918 3.92859L9.15918 12.0714C9.15918 12.3476 8.93532 12.5714 8.65918 12.5714C8.38304 12.5714 8.15918 12.3476 8.15918 12.0714L8.15918 3.92859Z" fill="black"/>
<path d="M4.65932 8.57144C4.34373 8.57144 4.08789 8.3156 4.08789 8.00001C4.08789 7.68442 4.34373 7.42858 4.65932 7.42858L12.6593 7.42858C12.9749 7.42858 13.2307 7.68442 13.2307 8.00001C13.2307 8.3156 12.9749 8.57144 12.6593 8.57144L4.65932 8.57144Z" fill="black"/>
</svg>
